# xmcd CD database file
#
# Track frame offsets:
#	150
#	28797
#	51648
#	64866
#	82502
#	98659
#	128448
#	156526
#	171169
#	194194
#	228976
#	251790
#
# Disc length: 3684 seconds
#
# Revision: 1
# Processed by: cddbd v1.4PL0 Copyright (c) Steve Scherf et al.
# Submitted via: CDex 1.50
#
DISCID=a30e620c
DTITLE=Itzbak Perlman - The Jazz Album 2
DYEAR=1900
DGENRE=Jazz
TTITLE0=A different kind of blues
TTITLE1=Chocolate apricot
TTITLE2=The five of us
TTITLE3=Make up your mind
TTITLE4=It's a Breeze
TTITLE5=Rain in my head
TTITLE6=Catgut your tongue
TTITLE7=It's about time
TTITLE8=Quiet diddling
TTITLE9=A tune for Heather
TTITLE10=Bowing and scraping
TTITLE11=The red bar
EXTD=
EXTT0=
EXTT1=
EXTT2=
EXTT3=
EXTT4=
EXTT5=
EXTT6=
EXTT7=
EXTT8=
EXTT9=
EXTT10=
EXTT11=
PLAYORDER=
